<svg width="8" height="13" viewBox="0 0 8 13" fill="none" xmlns="http://www.w3.org/2000/svg">
<path d="M0.912807 12.7788C1.03345 12.7795 1.15304 12.7563 1.26472 12.7107C1.37641 12.6651 1.47799 12.5979 1.56364 12.5129L7.06364 7.01292C7.23437 6.84117 7.3302 6.60884 7.3302 6.36667C7.3302 6.1245 7.23437 5.89217 7.06364 5.72042L1.56364 0.220419C1.38828 0.0702448 1.16271 -0.00822743 0.932007 0.000683633C0.701304 0.00959469 0.48246 0.105232 0.319207 0.268486C0.155954 0.431739 0.0603151 0.650583 0.051404 0.881287C0.0424929 1.11199 0.120966 1.33756 0.27114 1.51292L5.12031 6.36209L0.27114 11.2113C0.14242 11.3389 0.0544467 11.5019 0.0183434 11.6795C-0.0177593 11.8572 -0.000370502 12.0416 0.0683112 12.2094C0.136993 12.3771 0.253883 12.5208 0.404202 12.6221C0.55452 12.7235 0.731515 12.778 0.912807 12.7788Z" fill="#0C0D0D"/>
</svg>
